<svg width="183" height="170" viewBox="0 0 183 170" fill="none" xmlns="http://www.w3.org/2000/svg">
<rect x="0.5" y="0.5" width="181.83" height="169" rx="19.5" fill="#D5102D" stroke="#E22844"/>
<path d="M90.9663 37.7778C89.2426 37.7778 87.5401 38.076 85.9228 38.6511L26.2308 60.2271C24.2092 60.9725 22.8685 62.8894 22.8685 65.0407C22.8685 67.1919 24.2092 69.1088 26.2308 69.8543L38.5523 74.3058C35.0623 79.8009 33.0832 86.2971 33.0832 93.1341V99.1192C33.0832 105.168 30.7849 111.409 28.3376 116.329C26.9544 119.098 25.3796 121.824 23.5495 124.337C22.8685 125.253 22.677 126.446 23.06 127.532C23.4431 128.618 24.3369 129.428 25.4435 129.705L39.063 133.113C39.9568 133.347 40.9144 133.176 41.7018 132.687C42.4892 132.197 43.0425 131.387 43.2127 130.471C45.0428 121.355 44.1278 113.177 42.7658 107.319C42.0848 104.295 41.1698 101.206 39.893 98.3737V93.1341C39.893 86.7018 42.0636 80.6316 45.8302 75.7754C48.5754 72.474 52.1293 69.8117 56.3003 68.1716L89.7107 55.0301C91.4557 54.3485 93.4348 55.2005 94.1158 56.947C94.7968 58.6935 93.9456 60.6743 92.2005 61.3559L58.7901 74.4974C56.1513 75.5411 53.8317 77.1385 51.9377 79.0981L85.9015 91.3663C87.5188 91.9414 89.2213 92.2396 90.945 92.2396C92.6687 92.2396 94.3712 91.9414 95.9885 91.3663L155.702 69.8543C157.723 69.1301 159.064 67.1919 159.064 65.0407C159.064 62.8894 157.723 60.9725 155.702 60.2271L96.0098 38.6511C94.3925 38.076 92.69 37.7778 90.9663 37.7778ZM50.1076 117.862C50.1076 125.381 68.4089 133.198 90.9663 133.198C113.524 133.198 131.825 125.381 131.825 117.862L128.569 86.8935L98.3081 97.8412C95.9459 98.6932 93.4561 99.1192 90.9663 99.1192C88.4765 99.1192 85.9653 98.6932 83.6245 97.8412L53.3635 86.8935L50.1076 117.862Z" fill="white"/>
</svg>
