<svg width="183" height="170" viewBox="0 0 183 170" fill="none" xmlns="http://www.w3.org/2000/svg">
<rect x="0.5" y="0.5" width="181.83" height="169" rx="19.5" fill="#D5102D" stroke="#E22844"/>
<g clip-path="url(#clip0_417_30)">
<rect width="95.44" height="95.44" transform="translate(44 37)" fill="#D5102D"/>
<path d="M109.615 84.72C109.615 88.8582 109.391 92.8473 109 96.65H74.4401C74.03 92.8473 73.825 88.8582 73.825 84.72C73.825 80.5818 74.0487 76.5927 74.4401 72.79H109C109.41 76.5927 109.615 80.5818 109.615 84.72ZM114.983 72.79H137.93C138.918 76.6113 139.44 80.6004 139.44 84.72C139.44 88.8396 138.918 92.8287 137.93 96.65H114.983C115.375 92.81 115.58 88.8209 115.58 84.72C115.58 80.6191 115.375 76.63 114.983 72.79ZM135.973 66.825H114.219C112.355 54.9136 108.664 44.9409 103.911 38.5658C118.507 42.4244 130.381 53.0123 135.954 66.825H135.973ZM108.18 66.825H75.2603C76.3974 60.0398 78.1496 54.0375 80.2933 49.1723C82.2506 44.7731 84.4315 41.5856 86.5379 39.5724C88.6257 37.5965 90.3592 37 91.72 37C93.0808 37 94.8143 37.5965 96.9021 39.5724C99.0085 41.5856 101.189 44.7731 103.147 49.1723C105.309 54.0189 107.043 60.0212 108.18 66.825ZM69.2208 66.825H47.4672C53.0593 53.0123 64.9148 42.4244 79.529 38.5658C74.7757 44.9409 71.0848 54.9136 69.2208 66.825ZM45.5099 72.79H68.4565C68.065 76.63 67.86 80.6191 67.86 84.72C67.86 88.8209 68.065 92.81 68.4565 96.65H45.5099C44.5219 92.8287 44 88.8396 44 84.72C44 80.6004 44.5219 76.6113 45.5099 72.79ZM80.2933 120.249C78.131 115.402 76.3974 109.4 75.2603 102.615H108.18C107.043 109.4 105.29 115.402 103.147 120.249C101.189 124.648 99.0085 127.836 96.9021 129.849C94.8143 131.844 93.0808 132.44 91.72 132.44C90.3592 132.44 88.6257 131.844 86.5379 129.868C84.4315 127.854 82.2506 124.667 80.2933 120.268V120.249ZM69.2208 102.615C71.0848 114.526 74.7757 124.499 79.529 130.874C64.9148 127.016 53.0593 116.428 47.4672 102.615H69.2208ZM135.973 102.615C130.381 116.428 118.525 127.016 103.93 130.874C108.683 124.499 112.355 114.526 114.238 102.615H135.973Z" fill="white"/>
</g>
<defs>
<clipPath id="clip0_417_30">
<rect width="95.44" height="95.44" fill="white" transform="translate(44 37)"/>
</clipPath>
</defs>
</svg>
