<svg width="183" height="170" viewBox="0 0 183 170" fill="none" xmlns="http://www.w3.org/2000/svg">
<rect x="0.5" y="0.5" width="181.83" height="169" rx="19.5" fill="#D5102D" stroke="#E22844"/>
<path d="M112.807 40.0856L102.343 50.5682L125.864 74.0883L136.327 63.6245C140.441 59.5104 140.441 52.8601 136.327 48.746L127.686 40.0856C123.572 35.9715 116.921 35.9715 112.807 40.0856ZM97.7033 54.4193L95.975 54.9454L68.9043 63.0609C65.1659 64.1881 62.1977 67.0436 60.9578 70.7632L44.3134 120.396C43.5995 122.519 44.1255 124.886 45.6848 126.483L74.5401 97.646C73.9765 96.4625 73.6572 95.1475 73.6572 93.7573C73.6572 88.779 77.6962 84.74 82.6744 84.74C87.6527 84.74 91.6917 88.779 91.6917 93.7573C91.6917 98.7356 87.6527 102.775 82.6744 102.775C81.2843 102.775 79.9693 102.455 78.7857 101.892L49.9304 130.747C51.546 132.306 53.8943 132.851 56.0171 132.118L105.669 115.474C109.369 114.234 112.244 111.266 113.371 107.527L121.486 80.4568L122.012 78.7285L97.7033 54.4193Z" fill="white"/>
</svg>
