<svg width="183" height="170" viewBox="0 0 183 170" fill="none" xmlns="http://www.w3.org/2000/svg">
<rect x="0.5" y="0.5" width="181.83" height="169" rx="19.5" fill="#D5102D" stroke="#E22844"/>
<path d="M85.0417 69.8333C83.5 69.2083 81.8333 68.9583 80.125 69C79.0417 69 78.0833 69 77.2917 69.0417C76.4583 69 75.875 69.0417 75.5833 69.0833V83.0833C76.1667 83.125 76.7083 83.1667 77.2083 83.1667H79.4167C81.0417 83.1667 82.6667 82.9167 84.2083 82.4167C85.5417 82.0417 86.7083 81.25 87.625 80.2083C88.5 79.1667 88.9167 77.75 88.9167 75.9167C88.9583 74.625 88.625 73.3333 87.9583 72.2083C87.2636 71.1265 86.2418 70.2945 85.0417 69.8333ZM126.292 36H61.7083C51.9167 36 44 43.9167 44 53.7083V115.787C44 125.579 51.9167 133.496 61.7083 133.496H126.292C136.083 133.496 144 125.579 144 115.787V53.7083C144 43.9167 136.083 36 126.292 36ZM95.4958 84.5417C93.8333 86.875 91.5 88.625 88.7917 89.625C85.9583 90.6667 82.8333 91.0417 79.4167 91.0417C78.4167 91.0417 77.75 91.0417 77.3333 91C76.9167 90.9583 76.3333 90.9583 75.5417 90.9583V104.329C75.5833 104.621 75.375 104.875 75.0833 104.917H67C66.6667 104.917 66.5 104.746 66.5 104.371V61.5C66.5 61.2083 66.625 61.0417 66.9167 61.0417C67.625 61.0417 68.2917 61.0417 69.25 61C70.25 60.9583 71.2917 60.9583 72.4167 60.9167C73.5417 60.875 74.75 60.875 76.0417 60.8333C77.3333 60.7917 78.5833 60.7917 79.8333 60.7917C83.25 60.7917 86.0833 61.2083 88.4167 62.0833C90.5 62.7917 92.4167 63.9583 94 65.5C95.3333 66.8333 96.375 68.4583 97.0417 70.25C97.6625 72 97.9958 73.7917 97.9958 75.6667C98 79.25 97.1667 82.2083 95.4958 84.5417ZM125.042 100.75C123.875 102.417 122.246 103.704 120.375 104.463C118.333 105.333 115.833 105.787 112.829 105.787C110.917 105.787 109.037 105.625 107.167 105.25C105.708 104.996 104.25 104.542 102.917 103.917C102.625 103.754 102.413 103.462 102.454 103.129V95.8792C102.454 95.7583 102.5 95.5875 102.625 95.5042C102.746 95.4208 102.875 95.4625 103 95.5458C104.625 96.5042 106.333 97.175 108.167 97.5875C109.746 98.0042 111.412 98.2125 113.083 98.2125C114.667 98.2125 115.792 98 116.542 97.625C117.208 97.3333 117.667 96.625 117.667 95.875C117.667 95.2875 117.333 94.75 116.667 94.2083C116 93.6708 114.629 93.0458 112.588 92.2458C110.463 91.4958 108.508 90.4958 106.671 89.25C105.367 88.3162 104.285 87.1071 103.5 85.7083C102.838 84.39 102.51 82.929 102.546 81.4542C102.546 79.6625 103.046 77.9542 103.967 76.4125C105.008 74.7458 106.546 73.4125 108.338 72.5792C110.292 71.5833 112.75 71.125 115.708 71.125C117.417 71.125 119.167 71.25 120.875 71.5C122.125 71.6667 123.333 72 124.458 72.4583C124.621 72.5 124.792 72.6667 124.875 72.8333C124.917 73 124.958 73.1667 124.958 73.3333V80.125C124.958 80.2917 124.875 80.4583 124.75 80.5417C124.375 80.625 124.167 80.625 124 80.5417C122.75 79.875 121.417 79.4167 120 79.125C118.458 78.7917 116.917 78.5833 115.333 78.5833C114.5 78.5417 113.625 78.6667 112.829 78.875C112.292 79 111.829 79.2917 111.537 79.7083C111.329 80.0417 111.204 80.4583 111.204 80.8333C111.204 81.2083 111.371 81.5833 111.625 81.9167C112 82.375 112.496 82.75 113.042 83.0417C113.996 83.5417 115 84 115.996 84.4167C118.25 85.1667 120.417 86.2083 122.417 87.4583C123.792 88.3292 124.917 89.5 125.704 90.9167C126.371 92.2417 126.704 93.7083 126.663 95.2042C126.708 97.1667 126.125 99.1208 125.042 100.75Z" fill="white"/>
</svg>
